<?xml version="1.0" encoding="utf-8"?>
<!-- Generator: Adobe Illustrator 23.0.3, SVG Export Plug-In . SVG Version: 6.00 Build 0)  -->
<svg version="1.1" xmlns="http://www.w3.org/2000/svg" xmlns:xlink="http://www.w3.org/1999/xlink" x="0px" y="0px"
	 viewBox="0 0 786.67 200" style="enable-background:new 0 0 786.67 200;" xml:space="preserve">
<style type="text/css">
	.st0{display:none;}
	.st1{display:inline;fill:#020203;}
	.st2{fill:#FFFFFF;}
</style>
<g id="Lager_2" class="st0">
	<rect x="-191" y="-3039" transform="matrix(-1 -1.224647e-16 1.224647e-16 -1 762 -326)" class="st1" width="1144" height="5752"/>
</g>
<g id="Lager_1">
	<g>
		<g>
			<path class="st2" d="M144.67,120.75V62.4h-18.16V47.91h50.9V62.4h-18.16v58.35H144.67z"/>
		</g>
		<g>
			<path class="st2" d="M71.13,120.75H56.55V46.28h3.88l36.82,42.84V47.91h14.69v74.36h-3.88L71.13,81.07V120.75z"/>
			<path class="st2" d="M192,120.75V47.91h14.59v72.83H192z"/>
		</g>
	</g>
	<g>
		<path class="st2" d="M263.96,87.58h14.79v28.34c-1.73,0.49-3.71,0.83-5.89,1.02c-2.3,0.2-4.56,0.3-6.71,0.3
			c-4.81,0-8.91-0.44-12.17-1.3c-3.22-0.85-5.84-2.39-7.77-4.55c-1.94-2.17-3.36-5.12-4.22-8.76c-0.87-3.67-1.31-8.38-1.31-14.01
			v-7.7c0-5.83,0.44-10.71,1.31-14.52c0.86-3.77,2.3-6.78,4.27-8.96c1.97-2.17,4.62-3.71,7.88-4.6c3.3-0.9,7.44-1.36,12.32-1.36
			c2.67,0,5.15,0.19,7.39,0.55c2.24,0.37,4.21,0.82,5.88,1.36l0.37,0.12l1.22-4.16l-0.34-0.12c-1.58-0.55-3.71-1.08-6.34-1.58
			c-2.64-0.51-5.33-0.77-7.98-0.77c-6.23,0-11.39,0.72-15.33,2.15c-3.97,1.44-7.16,3.61-9.49,6.45c-2.33,2.84-3.94,6.41-4.79,10.6
			c-0.85,4.16-1.27,9.01-1.27,14.42v8.11c0,4.94,0.29,9.49,0.87,13.54c0.58,4.1,1.93,7.65,4.02,10.56c2.09,2.92,5.22,5.2,9.29,6.77
			c4.04,1.56,9.56,2.36,16.41,2.36c1.08,0,2.4-0.07,3.94-0.21c1.53-0.14,3.08-0.31,4.58-0.51c1.51-0.2,3.02-0.46,4.49-0.77
			c1.46-0.31,2.73-0.67,3.76-1.08l0.24-0.09V82.98h-18.42L263.96,87.58z"/>
		<polygon class="st2" points="320.79,85.96 298.71,48.09 298.6,47.9 293.36,47.9 318.38,90.15 318.38,120.84 323.09,120.84 
			323.09,90.05 348.62,47.9 343.38,47.9 		"/>
		<polygon class="st2" points="392.56,96.31 368.06,48.11 367.95,47.9 363.29,47.9 363.29,120.84 367.79,120.84 367.79,57.94 
			390.2,101.47 390.31,101.68 394.62,101.68 417.02,57.06 417.02,120.84 421.52,120.84 421.52,47.9 416.76,47.9 		"/>
		<polygon class="st2" points="489.1,112.95 449.35,48.08 449.24,47.9 444.29,47.9 444.29,120.84 448.79,120.84 448.79,55.99 
			488.66,120.84 493.6,120.84 493.6,47.9 489.1,47.9 		"/>
		<path class="st2" d="M541.04,47.9h-5.79l-26.74,72.93h4.75l8.42-23.22h32.63l8.42,22.97l0.09,0.25h5.06l-26.75-72.69L541.04,47.9z
			 M552.61,93.02h-29.24l14.57-40L552.61,93.02z"/>
		<path class="st2" d="M622.32,88.24c-1.28-1.63-3.03-3.02-5.19-4.16c-2.15-1.13-4.91-1.94-8.18-2.42l-9.73-1.42
			c-2.74-0.4-5.02-0.92-6.77-1.55c-1.73-0.62-3.13-1.47-4.17-2.54c-1.03-1.06-1.77-2.42-2.19-4.04c-0.43-1.65-0.65-3.73-0.65-6.19
			c0-2.7,0.43-5,1.28-6.84c0.84-1.82,2.1-3.3,3.72-4.41c1.64-1.12,3.71-1.93,6.15-2.43c2.47-0.5,5.31-0.75,8.44-0.75
			c3.54,0,6.72,0.25,9.46,0.75c2.74,0.5,5.28,1.16,7.55,1.96l0.36,0.13l1.34-4.15l-0.33-0.13c-2.16-0.81-4.68-1.55-7.5-2.19
			c-2.82-0.65-6.21-0.97-10.07-0.97c-8.22,0-14.52,1.61-18.73,4.79c-4.24,3.2-6.38,7.79-6.38,13.63v1.01c0,3,0.31,5.61,0.93,7.76
			c0.62,2.18,1.64,4.02,3.03,5.48c1.38,1.45,3.18,2.62,5.35,3.49c2.14,0.85,4.78,1.49,7.84,1.9l9.43,1.32
			c2.99,0.4,5.4,1.05,7.18,1.94c1.76,0.88,3.13,1.97,4.07,3.23c0.94,1.27,1.57,2.75,1.86,4.4c0.3,1.69,0.45,3.57,0.45,5.56
			c0,2.51-0.35,4.79-1.04,6.77c-0.69,1.96-1.79,3.63-3.29,4.96c-1.5,1.34-3.52,2.37-5.99,3.06c-2.49,0.7-5.61,1.05-9.28,1.05
			c-4.02,0-7.48-0.2-10.29-0.6c-2.81-0.4-5.76-1.08-8.76-2.01l-0.4-0.12l-0.85,4.27l0.3,0.11c2.44,0.88,5.33,1.6,8.58,2.15
			c3.25,0.54,6.85,0.82,10.71,0.82c4.41,0,8.25-0.48,11.41-1.44c3.18-0.96,5.82-2.33,7.84-4.08c2.03-1.76,3.53-3.89,4.46-6.33
			c0.92-2.43,1.39-5.19,1.39-8.19v-1.32c0-2.31-0.24-4.54-0.72-6.62C624.5,91.76,623.6,89.87,622.32,88.24z"/>
		<rect x="644.82" y="47.9" class="st2" width="4.7" height="72.93"/>
		<polygon class="st2" points="713.82,52.4 714.79,47.9 672.29,47.9 672.29,120.84 713.82,120.84 714.79,116.33 676.99,116.33 
			676.99,85.05 710.27,85.05 711.25,80.55 676.99,80.55 676.99,52.4 		"/>
		<polygon class="st2" points="755.46,120.84 755.46,52.4 780.43,52.4 781.4,47.9 726.19,47.9 725.22,52.4 750.75,52.4 
			750.75,120.84 		"/>
		<path class="st2" d="M656.44,182.21c0,2.75-0.19,5.03-0.58,6.8c-0.37,1.72-1,3.09-1.86,4.08c-0.85,0.97-2,1.66-3.42,2.04
			c-1.46,0.4-3.33,0.6-5.55,0.6c-1.96,0-3.66-0.22-5.06-0.65c-1.37-0.42-2.5-1.15-3.37-2.16c-0.88-1.02-1.54-2.41-1.97-4.12
			c-0.44-1.74-0.66-3.98-0.66-6.64V157.3h-3.02v24.74c0,2.7,0.23,5.1,0.68,7.15c0.46,2.08,1.25,3.84,2.34,5.24
			c1.1,1.41,2.59,2.49,4.42,3.2c1.81,0.7,4.08,1.06,6.76,1.06c2.86,0,5.25-0.37,7.1-1.09c1.87-0.73,3.36-1.83,4.42-3.26
			c1.06-1.42,1.79-3.18,2.2-5.25c0.39-2.03,0.59-4.38,0.59-7V157.3h-3.03V182.21z"/>
		<polygon class="st2" points="689.6,183.66 676.2,157.3 673.28,157.3 673.28,197.85 676.2,197.85 676.2,163.94 688.23,187.32 
			690.87,187.32 702.83,163.48 702.83,197.85 705.75,197.85 705.75,157.3 702.77,157.3 		"/>
		<polygon class="st2" points="743.3,160.22 743.93,157.3 720.06,157.3 720.06,197.85 743.3,197.85 743.93,194.94 723.09,194.94 
			723.09,178.17 741.35,178.17 741.98,175.26 723.09,175.26 723.09,160.22 		"/>
		<path class="st2" d="M771.1,159.14c0.94-0.41,1.71-1.05,2.31-1.89c0.68-0.96,1.03-2.08,1.03-3.31c0-0.76-0.15-1.5-0.45-2.2
			c-0.3-0.7-0.71-1.31-1.23-1.83c-0.52-0.52-1.14-0.94-1.83-1.23c-1.4-0.6-3.23-0.6-4.63,0c-0.7,0.3-1.31,0.71-1.83,1.23
			c-0.52,0.52-0.93,1.13-1.23,1.83c-0.3,0.7-0.45,1.44-0.45,2.2c0,1.24,0.35,2.36,1.05,3.34c0.62,0.86,1.42,1.51,2.4,1.92
			l-14.17,38.65h3.08l4.63-12.77h17.64l4.68,12.77h3.25L771.1,159.14z M766.41,156.24c-0.56-0.61-0.83-1.37-0.83-2.31
			c0-0.94,0.27-1.69,0.83-2.3c0.55-0.6,1.27-0.89,2.2-0.89s1.64,0.29,2.2,0.89c0.56,0.61,0.84,1.37,0.84,2.31s-0.27,1.69-0.84,2.31
			c-0.55,0.6-1.27,0.89-2.2,0.89S766.96,156.84,766.41,156.24z M776.31,182.12h-15.46l7.7-21.14L776.31,182.12z"/>
	</g>
	<path class="st2" d="M78.43,14.9V0.3l-78.7,0v81.71c0,55.72,28.21,73.54,74.23,97.99l4.48,2.37v-16.53l-0.55-0.3
		c-41.77-22.31-63.56-36.16-63.56-83.54V14.9L78.43,14.9z"/>
</g>
</svg>
